<svg aria-roledescription="gitGraph" role="graphics-document document" viewBox="-214.515625 -19 1122.515625 534.0426025390625" height="100%" xmlns="http://www.w3.org/2000/svg" width="1122.515625" id="graph-div" style="max-width: 100%;" xmlns:xlink="http://www.w3.org/1999/xlink"><style>@import url("https://cdnjs.cloudflare.com/ajax/libs/font-awesome/6.5.1/css/all.min.css");'</style><style>#graph-div{font-family:"trebuchet ms",verdana,arial,sans-serif;font-size:16px;fill:#333;}#graph-div .error-icon{fill:#552222;}#graph-div .error-text{fill:#552222;stroke:#552222;}#graph-div .edge-thickness-normal{stroke-width:2px;}#graph-div .edge-thickness-thick{stroke-width:3.5px;}#graph-div .edge-pattern-solid{stroke-dasharray:0;}#graph-div .edge-pattern-dashed{stroke-dasharray:3;}#graph-div .edge-pattern-dotted{stroke-dasharray:2;}#graph-div .marker{fill:#333333;stroke:#333333;}#graph-div .marker.cross{stroke:#333333;}#graph-div svg{font-family:"trebuchet ms",verdana,arial,sans-serif;font-size:16px;}#graph-div .commit-id,#graph-div .commit-msg,#graph-div .branch-label{fill:lightgrey;color:lightgrey;font-family:'trebuchet ms',verdana,arial,sans-serif;font-family:var(--mermaid-font-family);}#graph-div .branch-label0{fill:#ffffff;}#graph-div .commit0{stroke:hsl(240, 100%, 46.2745098039%);fill:hsl(240, 100%, 46.2745098039%);}#graph-div .commit-highlight0{stroke:hsl(60, 100%, 3.7254901961%);fill:hsl(60, 100%, 3.7254901961%);}#graph-div .label0{fill:hsl(240, 100%, 46.2745098039%);}#graph-div .arrow0{stroke:hsl(240, 100%, 46.2745098039%);}#graph-div .branch-label1{fill:black;}#graph-div .commit1{stroke:hsl(60, 100%, 43.5294117647%);fill:hsl(60, 100%, 43.5294117647%);}#graph-div .commit-highlight1{stroke:rgb(0, 0, 160.5);fill:rgb(0, 0, 160.5);}#graph-div .label1{fill:hsl(60, 100%, 43.5294117647%);}#graph-div .arrow1{stroke:hsl(60, 100%, 43.5294117647%);}#graph-div .branch-label2{fill:black;}#graph-div .commit2{stroke:hsl(80, 100%, 46.2745098039%);fill:hsl(80, 100%, 46.2745098039%);}#graph-div .commit-highlight2{stroke:rgb(48.8333333334, 0, 146.5000000001);fill:rgb(48.8333333334, 0, 146.5000000001);}#graph-div .label2{fill:hsl(80, 100%, 46.2745098039%);}#graph-div .arrow2{stroke:hsl(80, 100%, 46.2745098039%);}#graph-div .branch-label3{fill:#ffffff;}#graph-div .commit3{stroke:hsl(210, 100%, 46.2745098039%);fill:hsl(210, 100%, 46.2745098039%);}#graph-div .commit-highlight3{stroke:rgb(146.5000000001, 73.2500000001, 0);fill:rgb(146.5000000001, 73.2500000001, 0);}#graph-div .label3{fill:hsl(210, 100%, 46.2745098039%);}#graph-div .arrow3{stroke:hsl(210, 100%, 46.2745098039%);}#graph-div .branch-label4{fill:black;}#graph-div .commit4{stroke:hsl(180, 100%, 46.2745098039%);fill:hsl(180, 100%, 46.2745098039%);}#graph-div .commit-highlight4{stroke:rgb(146.5000000001, 0, 0);fill:rgb(146.5000000001, 0, 0);}#graph-div .label4{fill:hsl(180, 100%, 46.2745098039%);}#graph-div .arrow4{stroke:hsl(180, 100%, 46.2745098039%);}#graph-div .branch-label5{fill:black;}#graph-div .commit5{stroke:hsl(150, 100%, 46.2745098039%);fill:hsl(150, 100%, 46.2745098039%);}#graph-div .commit-highlight5{stroke:rgb(146.5000000001, 0, 73.2500000001);fill:rgb(146.5000000001, 0, 73.2500000001);}#graph-div .label5{fill:hsl(150, 100%, 46.2745098039%);}#graph-div .arrow5{stroke:hsl(150, 100%, 46.2745098039%);}#graph-div .branch-label6{fill:black;}#graph-div .commit6{stroke:hsl(300, 100%, 46.2745098039%);fill:hsl(300, 100%, 46.2745098039%);}#graph-div .commit-highlight6{stroke:rgb(0, 146.5000000001, 0);fill:rgb(0, 146.5000000001, 0);}#graph-div .label6{fill:hsl(300, 100%, 46.2745098039%);}#graph-div .arrow6{stroke:hsl(300, 100%, 46.2745098039%);}#graph-div .branch-label7{fill:black;}#graph-div .commit7{stroke:hsl(0, 100%, 46.2745098039%);fill:hsl(0, 100%, 46.2745098039%);}#graph-div .commit-highlight7{stroke:rgb(0, 146.5000000001, 146.5000000001);fill:rgb(0, 146.5000000001, 146.5000000001);}#graph-div .label7{fill:hsl(0, 100%, 46.2745098039%);}#graph-div .arrow7{stroke:hsl(0, 100%, 46.2745098039%);}#graph-div .branch{stroke-width:1;stroke:#333333;stroke-dasharray:2;}#graph-div .commit-label{font-size:10px;fill:#000021;}#graph-div .commit-label-bkg{font-size:10px;fill:#ffffde;opacity:0.5;}#graph-div .tag-label{font-size:10px;fill:#131300;}#graph-div .tag-label-bkg{fill:#ECECFF;stroke:hsl(240, 60%, 86.2745098039%);}#graph-div .tag-hole{fill:#333;}#graph-div .commit-merge{stroke:#ECECFF;fill:#ECECFF;}#graph-div .commit-reverse{stroke:#ECECFF;fill:#ECECFF;stroke-width:3;}#graph-div .commit-highlight-inner{stroke:#ECECFF;fill:#ECECFF;}#graph-div .arrow{stroke-width:8;stroke-linecap:round;fill:none;}#graph-div .gitTitleText{text-anchor:middle;font-size:18px;fill:#333;}#graph-div :root{--mermaid-font-family:"trebuchet ms",verdana,arial,sans-serif;}</style><g></g><g class="commit-bullets"></g><g class="commit-labels"></g><g><line class="branch branch0" y2="0" x2="900" y1="0" x1="0"></line><rect transform="translate(-19, -9.5)" height="23" width="53.25" y="-1.5" x="-69.25" ry="4" rx="4" class="branchLabelBkg label0"></rect><g class="branchLabel"><g transform="translate(-79.25, -10.5)" class="label branch-label0"><text><tspan class="row" x="0" dy="1em" xml:space="preserve">main</tspan></text></g></g><line class="branch branch1" y2="90" x2="900" y1="90" x1="0"></line><rect transform="translate(-19, 80.5)" height="23" width="74.5078125" y="-1.5" x="-90.5078125" ry="4" rx="4" class="branchLabelBkg label1"></rect><g class="branchLabel"><g transform="translate(-100.5078125, 79.5)" class="label branch-label1"><text><tspan class="row" x="0" dy="1em" xml:space="preserve">develop</tspan></text></g></g><line class="branch branch2" y2="180" x2="900" y1="180" x1="0"></line><rect transform="translate(-19, 170.5)" height="23" width="139.59375" y="-1.5" x="-155.59375" ry="4" rx="4" class="branchLabelBkg label2"></rect><g class="branchLabel"><g transform="translate(-165.59375, 169.5)" class="label branch-label2"><text><tspan class="row" x="0" dy="1em" xml:space="preserve">feature_add_doc</tspan></text></g></g><line class="branch branch3" y2="270" x2="900" y1="270" x1="0"></line><rect transform="translate(-19, 260.5)" height="23" width="165.2734375" y="-1.5" x="-181.2734375" ry="4" rx="4" class="branchLabelBkg label3"></rect><g class="branchLabel"><g transform="translate(-191.2734375, 259.5)" class="label branch-label3"><text><tspan class="row" x="0" dy="1em" xml:space="preserve">feature_make_it_fly</tspan></text></g></g><line class="branch branch4" y2="360" x2="900" y1="360" x1="0"></line><rect transform="translate(-19, 350.5)" height="23" width="156.953125" y="-1.5" x="-172.953125" ry="4" rx="4" class="branchLabelBkg label4"></rect><g class="branchLabel"><g transform="translate(-182.953125, 349.5)" class="label branch-label4"><text><tspan class="row" x="0" dy="1em" xml:space="preserve">feature_build_wing</tspan></text></g></g><line class="branch branch5" y2="450" x2="900" y1="450" x1="0"></line><rect transform="translate(-19, 440.5)" height="23" width="171.515625" y="-1.5" x="-187.515625" ry="4" rx="4" class="branchLabelBkg label5"></rect><g class="branchLabel"><g transform="translate(-197.515625, 439.5)" class="label branch-label5"><text><tspan class="row" x="0" dy="1em" xml:space="preserve">feature_build_engine</tspan></text></g></g></g><g class="commit-arrows"><path class="arrow arrow1" d="M 10 0 L 10 70 A 20 20, 0, 0, 0, 30 90 L 60 90"></path><path class="arrow arrow2" d="M 60 90 L 60 160 A 20 20, 0, 0, 0, 80 180 L 110 180"></path><path class="arrow arrow2" d="M 110 180 L 160 180"></path><path class="arrow arrow1" d="M 60 90 L 210 90"></path><path class="arrow arrow2" d="M 160 180 L 190 180 A 20 20, 0, 0, 0, 210 160 L 210 90"></path><path class="arrow arrow1" d="M 210 90 L 260 90"></path><path class="arrow arrow3" d="M 260 90 L 260 250 A 20 20, 0, 0, 0, 280 270 L 310 270"></path><path class="arrow arrow4" d="M 310 270 L 310 340 A 20 20, 0, 0, 0, 330 360 L 360 360"></path><path class="arrow arrow5" d="M 310 270 L 310 430 A 20 20, 0, 0, 0, 330 450 L 410 450"></path><path class="arrow arrow5" d="M 410 450 L 460 450"></path><path class="arrow arrow4" d="M 360 360 L 510 360"></path><path class="arrow arrow3" d="M 310 270 L 560 270"></path><path class="arrow arrow3" d="M 560 270 L 610 270"></path><path class="arrow arrow5" d="M 460 450 L 590 450 A 20 20, 0, 0, 0, 610 430 L 610 270"></path><path class="arrow arrow3" d="M 610 270 L 660 270"></path><path class="arrow arrow3" d="M 660 270 L 710 270"></path><path class="arrow arrow4" d="M 510 360 L 690 360 A 20 20, 0, 0, 0, 710 340 L 710 270"></path><path class="arrow arrow3" d="M 710 270 L 760 270"></path><path class="arrow arrow1" d="M 260 90 L 810 90"></path><path class="arrow arrow3" d="M 760 270 L 790 270 A 20 20, 0, 0, 0, 810 250 L 810 90"></path><path class="arrow arrow0" d="M 10 0 L 860 0"></path><path class="arrow arrow1" d="M 810 90 L 840 90 A 20 20, 0, 0, 0, 860 70 L 860 0"></path></g><g class="commit-bullets"><circle class="commit 0-77fccf7 commit0" r="10" cy="0" cx="10"></circle><circle class="commit 1-512f10d commit1" r="10" cy="90" cx="60"></circle><circle class="commit 2-62e70ad commit2" r="10" cy="180" cx="110"></circle><circle class="commit 3-657b3be commit2" r="10" cy="180" cx="160"></circle><circle class="commit 4-16f6447 commit1" r="9" cy="90" cx="210"></circle><circle class="commit commit-merge 4-16f6447 commit1" r="6" cy="90" cx="210"></circle><circle class="commit 5-29ef73e commit1" r="10" cy="90" cx="260"></circle><circle class="commit 6-781838d commit3" r="10" cy="270" cx="310"></circle><circle class="commit 7-995f685 commit4" r="10" cy="360" cx="360"></circle><circle class="commit 8-e0b3a38 commit5" r="10" cy="450" cx="410"></circle><circle class="commit 9-572e1c6 commit5" r="10" cy="450" cx="460"></circle><circle class="commit 10-66cd945 commit4" r="10" cy="360" cx="510"></circle><circle class="commit 11-89f1d25 commit3" r="10" cy="270" cx="560"></circle><circle class="commit 12-ca46fff commit3" r="9" cy="270" cx="610"></circle><circle class="commit commit-merge 12-ca46fff commit3" r="6" cy="270" cx="610"></circle><circle class="commit 13-3923dda commit3" r="10" cy="270" cx="660"></circle><circle class="commit 14-f4647de commit3" r="9" cy="270" cx="710"></circle><circle class="commit commit-merge 14-f4647de commit3" r="6" cy="270" cx="710"></circle><circle class="commit 15-b8e678b commit3" r="10" cy="270" cx="760"></circle><circle class="commit 16-c9c7349 commit1" r="9" cy="90" cx="810"></circle><circle class="commit commit-merge 16-c9c7349 commit1" r="6" cy="90" cx="810"></circle><circle class="commit 17-2fb9c28 commit0" r="9" cy="0" cx="860"></circle><circle class="commit commit-merge 17-2fb9c28 commit0" r="6" cy="0" cx="860"></circle></g><g class="commit-labels"><g transform="translate(-27.525703125, 24.517734375) rotate(-45, 0, 0)"><rect height="15" width="46.69921875" y="13.5" x="-13.349609375" class="commit-label-bkg"></rect><text class="commit-label" y="25" x="-11.349609375">0-77fccf7</text></g><g transform="translate(-28.33654296875, 25.243222656249998) rotate(-45, 50, 90)"><rect height="15" width="48.8330078125" y="103.5" x="35.58349609375" class="commit-label-bkg"></rect><text class="commit-label" y="115" x="37.58349609375">1-512f10d</text></g><g transform="translate(-29.008222656250002, 25.84419921875) rotate(-45, 100, 180)"><rect height="15" width="50.6005859375" y="193.5" x="84.69970703125" class="commit-label-bkg"></rect><text class="commit-label" y="205" x="86.69970703125">2-62e70ad</text></g><g transform="translate(-29.173359374999997, 25.991953125000002) rotate(-45, 150, 180)"><rect height="15" width="51.03515625" y="193.5" x="134.482421875" class="commit-label-bkg"></rect><text class="commit-label" y="205" x="136.482421875">3-657b3be</text></g><g transform="translate(-28.416328125, 25.314609375) rotate(-45, 250, 90)"><rect height="15" width="49.04296875" y="103.5" x="235.478515625" class="commit-label-bkg"></rect><text class="commit-label" y="115" x="237.478515625">5-29ef73e</text></g><g transform="translate(-28.924726562500002, 25.7694921875) rotate(-45, 300, 270)"><rect height="15" width="50.380859375" y="283.5" x="284.8095703125" class="commit-label-bkg"></rect><text class="commit-label" y="295" x="286.8095703125">6-781838d</text></g><g transform="translate(-28.0496875, 24.986562499999998) rotate(-45, 350, 360)"><rect height="15" width="48.078125" y="373.5" x="335.9609375" class="commit-label-bkg"></rect><text class="commit-label" y="385" x="337.9609375">7-995f685</text></g><g transform="translate(-29.1325390625, 25.9554296875) rotate(-45, 400, 450)"><rect height="15" width="50.927734375" y="463.5" x="384.5361328125" class="commit-label-bkg"></rect><text class="commit-label" y="475" x="386.5361328125">8-e0b3a38</text></g><g transform="translate(-28.89318359375, 25.741269531249998) rotate(-45, 450, 450)"><rect height="15" width="50.2978515625" y="463.5" x="434.85107421875" class="commit-label-bkg"></rect><text class="commit-label" y="475" x="436.85107421875">9-572e1c6</text></g><g transform="translate(-30.644374999999997, 27.308125) rotate(-45, 500, 360)"><rect height="15" width="54.90625" y="373.5" x="482.546875" class="commit-label-bkg"></rect><text class="commit-label" y="385" x="484.546875">10-66cd945</text></g><g transform="translate(-30.169375, 26.883125) rotate(-45, 550, 270)"><rect height="15" width="53.65625" y="283.5" x="533.171875" class="commit-label-bkg"></rect><text class="commit-label" y="295" x="535.171875">11-89f1d25</text></g><g transform="translate(-31.1661328125, 27.7749609375) rotate(-45, 650, 270)"><rect height="15" width="56.279296875" y="283.5" x="631.8603515625" class="commit-label-bkg"></rect><text class="commit-label" y="295" x="633.8603515625">13-3923dda</text></g><g transform="translate(-31.121601562499997, 27.7351171875) rotate(-45, 750, 270)"><rect height="15" width="56.162109375" y="283.5" x="731.9189453125" class="commit-label-bkg"></rect><text class="commit-label" y="295" x="733.9189453125">15-b8e678b</text></g></g></svg>