<svg aria-roledescription="gitGraph" role="graphics-document document" viewBox="-214.515625 -19 1422.515625 627.5340576171875" height="100%" xmlns="http://www.w3.org/2000/svg" width="1422.515625" id="graph-div" style="max-width: 100%;" xmlns:xlink="http://www.w3.org/1999/xlink"><style>@import url("https://cdnjs.cloudflare.com/ajax/libs/font-awesome/6.5.1/css/all.min.css");'</style><style>#graph-div{font-family:"trebuchet ms",verdana,arial,sans-serif;font-size:16px;fill:#333;}#graph-div .error-icon{fill:#552222;}#graph-div .error-text{fill:#552222;stroke:#552222;}#graph-div .edge-thickness-normal{stroke-width:2px;}#graph-div .edge-thickness-thick{stroke-width:3.5px;}#graph-div .edge-pattern-solid{stroke-dasharray:0;}#graph-div .edge-pattern-dashed{stroke-dasharray:3;}#graph-div .edge-pattern-dotted{stroke-dasharray:2;}#graph-div .marker{fill:#333333;stroke:#333333;}#graph-div .marker.cross{stroke:#333333;}#graph-div svg{font-family:"trebuchet ms",verdana,arial,sans-serif;font-size:16px;}#graph-div .commit-id,#graph-div .commit-msg,#graph-div .branch-label{fill:lightgrey;color:lightgrey;font-family:'trebuchet ms',verdana,arial,sans-serif;font-family:var(--mermaid-font-family);}#graph-div .branch-label0{fill:#ffffff;}#graph-div .commit0{stroke:hsl(240, 100%, 46.2745098039%);fill:hsl(240, 100%, 46.2745098039%);}#graph-div .commit-highlight0{stroke:hsl(60, 100%, 3.7254901961%);fill:hsl(60, 100%, 3.7254901961%);}#graph-div .label0{fill:hsl(240, 100%, 46.2745098039%);}#graph-div .arrow0{stroke:hsl(240, 100%, 46.2745098039%);}#graph-div .branch-label1{fill:black;}#graph-div .commit1{stroke:hsl(60, 100%, 43.5294117647%);fill:hsl(60, 100%, 43.5294117647%);}#graph-div .commit-highlight1{stroke:rgb(0, 0, 160.5);fill:rgb(0, 0, 160.5);}#graph-div .label1{fill:hsl(60, 100%, 43.5294117647%);}#graph-div .arrow1{stroke:hsl(60, 100%, 43.5294117647%);}#graph-div .branch-label2{fill:black;}#graph-div .commit2{stroke:hsl(80, 100%, 46.2745098039%);fill:hsl(80, 100%, 46.2745098039%);}#graph-div .commit-highlight2{stroke:rgb(48.8333333334, 0, 146.5000000001);fill:rgb(48.8333333334, 0, 146.5000000001);}#graph-div .label2{fill:hsl(80, 100%, 46.2745098039%);}#graph-div .arrow2{stroke:hsl(80, 100%, 46.2745098039%);}#graph-div .branch-label3{fill:#ffffff;}#graph-div .commit3{stroke:hsl(210, 100%, 46.2745098039%);fill:hsl(210, 100%, 46.2745098039%);}#graph-div .commit-highlight3{stroke:rgb(146.5000000001, 73.2500000001, 0);fill:rgb(146.5000000001, 73.2500000001, 0);}#graph-div .label3{fill:hsl(210, 100%, 46.2745098039%);}#graph-div .arrow3{stroke:hsl(210, 100%, 46.2745098039%);}#graph-div .branch-label4{fill:black;}#graph-div .commit4{stroke:hsl(180, 100%, 46.2745098039%);fill:hsl(180, 100%, 46.2745098039%);}#graph-div .commit-highlight4{stroke:rgb(146.5000000001, 0, 0);fill:rgb(146.5000000001, 0, 0);}#graph-div .label4{fill:hsl(180, 100%, 46.2745098039%);}#graph-div .arrow4{stroke:hsl(180, 100%, 46.2745098039%);}#graph-div .branch-label5{fill:black;}#graph-div .commit5{stroke:hsl(150, 100%, 46.2745098039%);fill:hsl(150, 100%, 46.2745098039%);}#graph-div .commit-highlight5{stroke:rgb(146.5000000001, 0, 73.2500000001);fill:rgb(146.5000000001, 0, 73.2500000001);}#graph-div .label5{fill:hsl(150, 100%, 46.2745098039%);}#graph-div .arrow5{stroke:hsl(150, 100%, 46.2745098039%);}#graph-div .branch-label6{fill:black;}#graph-div .commit6{stroke:hsl(300, 100%, 46.2745098039%);fill:hsl(300, 100%, 46.2745098039%);}#graph-div .commit-highlight6{stroke:rgb(0, 146.5000000001, 0);fill:rgb(0, 146.5000000001, 0);}#graph-div .label6{fill:hsl(300, 100%, 46.2745098039%);}#graph-div .arrow6{stroke:hsl(300, 100%, 46.2745098039%);}#graph-div .branch-label7{fill:black;}#graph-div .commit7{stroke:hsl(0, 100%, 46.2745098039%);fill:hsl(0, 100%, 46.2745098039%);}#graph-div .commit-highlight7{stroke:rgb(0, 146.5000000001, 146.5000000001);fill:rgb(0, 146.5000000001, 146.5000000001);}#graph-div .label7{fill:hsl(0, 100%, 46.2745098039%);}#graph-div .arrow7{stroke:hsl(0, 100%, 46.2745098039%);}#graph-div .branch{stroke-width:1;stroke:#333333;stroke-dasharray:2;}#graph-div .commit-label{font-size:10px;fill:#000021;}#graph-div .commit-label-bkg{font-size:10px;fill:#ffffde;opacity:0.5;}#graph-div .tag-label{font-size:10px;fill:#131300;}#graph-div .tag-label-bkg{fill:#ECECFF;stroke:hsl(240, 60%, 86.2745098039%);}#graph-div .tag-hole{fill:#333;}#graph-div .commit-merge{stroke:#ECECFF;fill:#ECECFF;}#graph-div .commit-reverse{stroke:#ECECFF;fill:#ECECFF;stroke-width:3;}#graph-div .commit-highlight-inner{stroke:#ECECFF;fill:#ECECFF;}#graph-div .arrow{stroke-width:8;stroke-linecap:round;fill:none;}#graph-div .gitTitleText{text-anchor:middle;font-size:18px;fill:#333;}#graph-div :root{--mermaid-font-family:"trebuchet ms",verdana,arial,sans-serif;}</style><g></g><g class="commit-bullets"></g><g class="commit-labels"></g><g><line class="branch branch0" y2="0" x2="1200" y1="0" x1="0"></line><rect transform="translate(-19, -9.5)" height="23" width="53.25" y="-1.5" x="-69.25" ry="4" rx="4" class="branchLabelBkg label0"></rect><g class="branchLabel"><g transform="translate(-79.25, -10.5)" class="label branch-label0"><text><tspan class="row" x="0" dy="1em" xml:space="preserve">main</tspan></text></g></g><line class="branch branch1" y2="90" x2="1200" y1="90" x1="0"></line><rect transform="translate(-19, 80.5)" height="23" width="74.5078125" y="-1.5" x="-90.5078125" ry="4" rx="4" class="branchLabelBkg label1"></rect><g class="branchLabel"><g transform="translate(-100.5078125, 79.5)" class="label branch-label1"><text><tspan class="row" x="0" dy="1em" xml:space="preserve">develop</tspan></text></g></g><line class="branch branch2" y2="180" x2="1200" y1="180" x1="0"></line><rect transform="translate(-19, 170.5)" height="23" width="139.59375" y="-1.5" x="-155.59375" ry="4" rx="4" class="branchLabelBkg label2"></rect><g class="branchLabel"><g transform="translate(-165.59375, 169.5)" class="label branch-label2"><text><tspan class="row" x="0" dy="1em" xml:space="preserve">feature_add_doc</tspan></text></g></g><line class="branch branch3" y2="270" x2="1200" y1="270" x1="0"></line><rect transform="translate(-19, 260.5)" height="23" width="165.2734375" y="-1.5" x="-181.2734375" ry="4" rx="4" class="branchLabelBkg label3"></rect><g class="branchLabel"><g transform="translate(-191.2734375, 259.5)" class="label branch-label3"><text><tspan class="row" x="0" dy="1em" xml:space="preserve">feature_make_it_fly</tspan></text></g></g><line class="branch branch4" y2="360" x2="1200" y1="360" x1="0"></line><rect transform="translate(-19, 350.5)" height="23" width="156.953125" y="-1.5" x="-172.953125" ry="4" rx="4" class="branchLabelBkg label4"></rect><g class="branchLabel"><g transform="translate(-182.953125, 349.5)" class="label branch-label4"><text><tspan class="row" x="0" dy="1em" xml:space="preserve">feature_build_wing</tspan></text></g></g><line class="branch branch5" y2="450" x2="1200" y1="450" x1="0"></line><rect transform="translate(-19, 440.5)" height="23" width="171.515625" y="-1.5" x="-187.515625" ry="4" rx="4" class="branchLabelBkg label5"></rect><g class="branchLabel"><g transform="translate(-197.515625, 439.5)" class="label branch-label5"><text><tspan class="row" x="0" dy="1em" xml:space="preserve">feature_build_engine</tspan></text></g></g><line class="branch branch6" y2="540" x2="1200" y1="540" x1="0"></line><rect transform="translate(-19, 530.5)" height="23" width="61.1484375" y="-1.5" x="-77.1484375" ry="4" rx="4" class="branchLabelBkg label6"></rect><g class="branchLabel"><g transform="translate(-87.1484375, 529.5)" class="label branch-label6"><text><tspan class="row" x="0" dy="1em" xml:space="preserve">hotfix</tspan></text></g></g></g><g class="commit-arrows"><path class="arrow arrow1" d="M 10 0 L 10 70 A 20 20, 0, 0, 0, 30 90 L 60 90"></path><path class="arrow arrow2" d="M 60 90 L 60 160 A 20 20, 0, 0, 0, 80 180 L 110 180"></path><path class="arrow arrow2" d="M 110 180 L 160 180"></path><path class="arrow arrow1" d="M 60 90 L 210 90"></path><path class="arrow arrow2" d="M 160 180 L 190 180 A 20 20, 0, 0, 0, 210 160 L 210 90"></path><path class="arrow arrow1" d="M 210 90 L 260 90"></path><path class="arrow arrow3" d="M 260 90 L 260 250 A 20 20, 0, 0, 0, 280 270 L 310 270"></path><path class="arrow arrow4" d="M 310 270 L 310 340 A 20 20, 0, 0, 0, 330 360 L 360 360"></path><path class="arrow arrow5" d="M 310 270 L 310 430 A 20 20, 0, 0, 0, 330 450 L 410 450"></path><path class="arrow arrow5" d="M 410 450 L 460 450"></path><path class="arrow arrow4" d="M 360 360 L 510 360"></path><path class="arrow arrow3" d="M 310 270 L 560 270"></path><path class="arrow arrow3" d="M 560 270 L 610 270"></path><path class="arrow arrow5" d="M 460 450 L 590 450 A 20 20, 0, 0, 0, 610 430 L 610 270"></path><path class="arrow arrow3" d="M 610 270 L 660 270"></path><path class="arrow arrow6" d="M 10 0 L 10 520 A 20 20, 0, 0, 0, 30 540 L 710 540"></path><path class="arrow arrow0" d="M 10 0 L 760 0"></path><path class="arrow arrow6" d="M 710 540 L 740 540 A 20 20, 0, 0, 0, 760 520 L 760 0"></path><path class="arrow arrow0" d="M 760 0 L 810 0"></path><path class="arrow arrow1" d="M 260 90 L 860 90"></path><path class="arrow arrow6" d="M 710 540 L 840 540 A 20 20, 0, 0, 0, 860 520 L 860 90"></path><path class="arrow arrow1" d="M 860 90 L 910 90"></path><path class="arrow arrow3" d="M 660 270 L 960 270"></path><path class="arrow arrow4" d="M 510 360 L 940 360 A 20 20, 0, 0, 0, 960 340 L 960 270"></path><path class="arrow arrow3" d="M 960 270 L 1010 270"></path><path class="arrow arrow1" d="M 910 90 L 1060 90"></path><path class="arrow arrow3" d="M 1010 270 L 1040 270 A 20 20, 0, 0, 0, 1060 250 L 1060 90"></path><path class="arrow arrow1" d="M 1060 90 L 1110 90"></path><path class="arrow arrow0" d="M 810 0 L 1160 0"></path><path class="arrow arrow1" d="M 1110 90 L 1140 90 A 20 20, 0, 0, 0, 1160 70 L 1160 0"></path></g><g class="commit-bullets"><circle class="commit 0-0594fe6 commit0" r="10" cy="0" cx="10"></circle><circle class="commit 1-4f7ca9c commit1" r="10" cy="90" cx="60"></circle><circle class="commit 2-4c87c62 commit2" r="10" cy="180" cx="110"></circle><circle class="commit 3-0ca983e commit2" r="10" cy="180" cx="160"></circle><circle class="commit 4-1def54c commit1" r="9" cy="90" cx="210"></circle><circle class="commit commit-merge 4-1def54c commit1" r="6" cy="90" cx="210"></circle><circle class="commit 5-2940192 commit1" r="10" cy="90" cx="260"></circle><circle class="commit 6-098238b commit3" r="10" cy="270" cx="310"></circle><circle class="commit 7-ce17786 commit4" r="10" cy="360" cx="360"></circle><circle class="commit 8-b29e42e commit5" r="10" cy="450" cx="410"></circle><circle class="commit 9-55dd6dd commit5" r="10" cy="450" cx="460"></circle><circle class="commit 10-76756a3 commit4" r="10" cy="360" cx="510"></circle><circle class="commit 11-b9d286f commit3" r="10" cy="270" cx="560"></circle><circle class="commit 12-29492ad commit3" r="9" cy="270" cx="610"></circle><circle class="commit commit-merge 12-29492ad commit3" r="6" cy="270" cx="610"></circle><circle class="commit 13-b03335e commit3" r="10" cy="270" cx="660"></circle><circle class="commit 14-4b996a9 commit6" r="10" cy="540" cx="710"></circle><circle class="commit 15-fc2421b commit0" r="9" cy="0" cx="760"></circle><circle class="commit commit-merge 15-fc2421b commit0" r="6" cy="0" cx="760"></circle><circle class="commit 16-706a81e commit0" r="10" cy="0" cx="810"></circle><circle class="commit 17-1615b17 commit1" r="9" cy="90" cx="860"></circle><circle class="commit commit-merge 17-1615b17 commit1" r="6" cy="90" cx="860"></circle><circle class="commit 18-15e80bc commit1" r="10" cy="90" cx="910"></circle><circle class="commit 19-a27fd36 commit3" r="9" cy="270" cx="960"></circle><circle class="commit commit-merge 19-a27fd36 commit3" r="6" cy="270" cx="960"></circle><circle class="commit 20-22bb747 commit3" r="10" cy="270" cx="1010"></circle><circle class="commit 21-3a7b240 commit1" r="9" cy="90" cx="1060"></circle><circle class="commit commit-merge 21-3a7b240 commit1" r="6" cy="90" cx="1060"></circle><circle class="commit 22-3b41025 commit1" r="10" cy="90" cx="1110"></circle><circle class="commit 23-26bea89 commit0" r="9" cy="0" cx="1160"></circle><circle class="commit commit-merge 23-26bea89 commit0" r="6" cy="0" cx="1160"></circle></g><g class="commit-labels"><g transform="translate(-28.416328125, 25.314609375) rotate(-45, 0, 0)"><rect height="15" width="49.04296875" y="13.5" x="-14.521484375" class="commit-label-bkg"></rect><text class="commit-label" y="25" x="-12.521484375">0-0594fe6</text></g><g transform="translate(-27.84892578125, 24.80693359375) rotate(-45, 50, 90)"><rect height="15" width="47.5498046875" y="103.5" x="36.22509765625" class="commit-label-bkg"></rect><text class="commit-label" y="115" x="38.22509765625">1-4f7ca9c</text></g><g transform="translate(-28.702070312500002, 25.5702734375) rotate(-45, 100, 180)"><rect height="15" width="49.794921875" y="193.5" x="85.1025390625" class="commit-label-bkg"></rect><text class="commit-label" y="205" x="87.1025390625">2-4c87c62</text></g><g transform="translate(-28.817109375, 25.673203125) rotate(-45, 150, 180)"><rect height="15" width="50.09765625" y="193.5" x="134.951171875" class="commit-label-bkg"></rect><text class="commit-label" y="205" x="136.951171875">3-0ca983e</text></g><g transform="translate(-28.924726562500002, 25.7694921875) rotate(-45, 250, 90)"><rect height="15" width="50.380859375" y="103.5" x="234.8095703125" class="commit-label-bkg"></rect><text class="commit-label" y="115" x="236.8095703125">5-2940192</text></g><g transform="translate(-28.924726562500002, 25.7694921875) rotate(-45, 300, 270)"><rect height="15" width="50.380859375" y="283.5" x="284.8095703125" class="commit-label-bkg"></rect><text class="commit-label" y="295" x="286.8095703125">6-098238b</text></g><g transform="translate(-28.89318359375, 25.741269531249998) rotate(-45, 350, 360)"><rect height="15" width="50.2978515625" y="373.5" x="334.85107421875" class="commit-label-bkg"></rect><text class="commit-label" y="385" x="336.85107421875">7-ce17786</text></g><g transform="translate(-29.128828125000002, 25.952109375) rotate(-45, 400, 450)"><rect height="15" width="50.91796875" y="463.5" x="384.541015625" class="commit-label-bkg"></rect><text class="commit-label" y="475" x="386.541015625">8-b29e42e</text></g><g transform="translate(-29.29767578125, 26.10318359375) rotate(-45, 450, 450)"><rect height="15" width="51.3623046875" y="463.5" x="434.31884765625" class="commit-label-bkg"></rect><text class="commit-label" y="475" x="436.31884765625">9-55dd6dd</text></g><g transform="translate(-30.6384375, 27.3028125) rotate(-45, 500, 360)"><rect height="15" width="54.890625" y="373.5" x="482.5546875" class="commit-label-bkg"></rect><text class="commit-label" y="385" x="484.5546875">10-76756a3</text></g><g transform="translate(-30.7861328125, 27.4349609375) rotate(-45, 550, 270)"><rect height="15" width="55.279296875" y="283.5" x="532.3603515625" class="commit-label-bkg"></rect><text class="commit-label" y="295" x="534.3603515625">11-b9d286f</text></g><g transform="translate(-31.04181640625, 27.66373046875) rotate(-45, 650, 270)"><rect height="15" width="55.9521484375" y="283.5" x="632.02392578125" class="commit-label-bkg"></rect><text class="commit-label" y="295" x="634.02392578125">13-b03335e</text></g><g transform="translate(-31.04552734375, 27.66705078125) rotate(-45, 700, 540)"><rect height="15" width="55.9619140625" y="553.5" x="682.01904296875" class="commit-label-bkg"></rect><text class="commit-label" y="565" x="684.01904296875">14-4b996a9</text></g><g transform="translate(-30.9212109375, 27.5558203125) rotate(-45, 800, 0)"><rect height="15" width="55.634765625" y="13.5" x="782.1826171875" class="commit-label-bkg"></rect><text class="commit-label" y="25" x="784.1826171875">16-706a81e</text></g><g transform="translate(-30.741601562499998, 27.3951171875) rotate(-45, 900, 90)"><rect height="15" width="55.162109375" y="103.5" x="882.4189453125" class="commit-label-bkg"></rect><text class="commit-label" y="115" x="884.4189453125">18-15e80bc</text></g><g transform="translate(-31.1661328125, 27.7749609375) rotate(-45, 1000, 270)"><rect height="15" width="56.279296875" y="283.5" x="981.8603515625" class="commit-label-bkg"></rect><text class="commit-label" y="295" x="983.8603515625">20-22bb747</text></g><g transform="translate(-30.7571875, 27.4090625) rotate(-45, 1100, 90)"><rect height="15" width="55.203125" y="103.5" x="1082.3984375" class="commit-label-bkg"></rect><text class="commit-label" y="115" x="1084.3984375">22-3b41025</text></g></g></svg>